<?xml version="1.0" encoding="iso-8859-1"?>
<!-- Uploaded to: SVG Repo, www.svgrepo.com, Generator: SVG Repo Mixer Tools -->
<svg height="800px" width="800px" version="1.1" id="Layer_1" xmlns="http://www.w3.org/2000/svg" xmlns:xlink="http://www.w3.org/1999/xlink" 
	 viewBox="0 0 512 512" xml:space="preserve">
<path style="fill:#1E0478;" d="M512,121.749v268.501c0,17.991-14.632,32.611-32.611,32.611H32.611
	C14.632,422.862,0,408.241,0,390.251V121.749c0-17.991,14.632-32.611,32.611-32.611h446.777C497.368,89.138,512,103.759,512,121.749
	z M490.259,390.251V121.749c0-6.001-4.881-10.87-10.871-10.87H32.611c-5.99,0-10.87,4.87-10.87,10.87v268.501
	c0,6,4.881,10.87,10.87,10.87h446.777C485.378,401.121,490.259,396.251,490.259,390.251z"/>
<path style="fill:#FFFFFF;" d="M490.259,121.749v268.501c0,6-4.881,10.87-10.871,10.87H32.611c-5.99,0-10.87-4.87-10.87-10.87
	V121.749c0-6.001,4.881-10.87,10.87-10.87h446.777C485.378,110.879,490.259,115.749,490.259,121.749z M432.972,195.375
	c0-6.001-4.859-10.87-10.87-10.87H305.439c-6,0-10.87,4.87-10.87,10.87s4.87,10.87,10.87,10.87h116.662
	C428.112,206.246,432.972,201.376,432.972,195.375z M432.972,256c0-6.001-4.859-10.87-10.87-10.87H305.439
	c-6,0-10.87,4.87-10.87,10.87c0,6.001,4.87,10.871,10.87,10.871h116.662C428.112,266.871,432.972,262.001,432.972,256z
	 M432.972,316.625c0-6.001-4.859-10.87-10.87-10.87H305.439c-6,0-10.87,4.87-10.87,10.87c0,6,4.87,10.87,10.87,10.87h116.662
	C428.112,327.495,432.972,322.625,432.972,316.625z M239.325,369.716v-39.612c0-21.556-17.186-39.166-38.579-39.862
	c-0.217-0.011-20.11,0.815-25.491-20.708c7.261-5.718,13.36-13.653,17.708-23.143c0.326,0.033,0.652,0.076,0.967,0.076
	c2.968,0,5.837-1.348,7.718-3.772c9.131-11.729,13.882-26.948,13.371-42.873c-1.054-33.003-24.013-59.016-52.309-59.32
	c-0.772-0.033-1.468-0.011-2.022,0c-0.011,0-0.022,0-0.043,0c-6.859-2.968-14.088-4.37-21.545-4.12
	c-15.936,0.511-30.546,8.403-41.156,22.219c-10.164,13.24-15.447,30.481-14.871,48.526c0.098,3.055,0.337,5.87,0.728,8.544
	c1.054,7.685,3.174,15.045,6.305,21.893c1.5,3.294,4.696,5.479,8.305,5.696c0.978,0.065,1.946-0.033,2.881-0.261
	c4.424,10.979,11.11,20.11,19.208,26.48c-5.272,21.491-25.285,20.752-25.502,20.763c-21.393,0.696-38.579,18.306-38.579,39.862
	v39.612c0,5.403,4.381,9.783,9.783,9.783h163.34C234.944,379.5,239.325,375.119,239.325,369.716z"/>
<g>
	<path style="fill:#1E0478;" d="M422.101,184.505c6.011,0,10.87,4.87,10.87,10.87s-4.859,10.87-10.87,10.87H305.439
		c-6,0-10.87-4.87-10.87-10.87s4.87-10.87,10.87-10.87H422.101z"/>
	<path style="fill:#1E0478;" d="M422.101,245.13c6.011,0,10.87,4.87,10.87,10.87c0,6.001-4.859,10.871-10.87,10.871H305.439
		c-6,0-10.87-4.87-10.87-10.871c0-6.001,4.87-10.87,10.87-10.87H422.101z"/>
	<path style="fill:#1E0478;" d="M422.101,305.754c6.011,0,10.87,4.87,10.87,10.87c0,6-4.859,10.87-10.87,10.87H305.439
		c-6,0-10.87-4.87-10.87-10.87c0-6.001,4.87-10.87,10.87-10.87H422.101z"/>
	<path style="fill:#1E0478;" d="M239.325,330.104v39.612c0,5.403-4.381,9.783-9.783,9.783H66.201c-5.403,0-9.783-4.381-9.783-9.783
		v-39.612c0-21.556,17.186-39.166,38.579-39.862c0.217-0.011,20.23,0.728,25.502-20.763c-8.099-6.37-14.784-15.501-19.208-26.48
		c-0.935,0.228-1.902,0.326-2.881,0.261c-3.609-0.217-6.805-2.402-8.305-5.696c-3.131-6.848-5.25-14.208-6.305-21.893
		c-0.391-2.674-0.63-5.49-0.728-8.544c-0.576-18.045,4.707-35.286,14.871-48.526c10.61-13.816,25.22-21.708,41.156-22.219
		c7.457-0.25,14.686,1.152,21.545,4.12c0.022,0,0.033,0,0.043,0c0.554-0.011,1.25-0.033,2.022,0
		c28.296,0.304,51.254,26.317,52.309,59.32c0.511,15.925-4.239,31.144-13.371,42.873c-1.881,2.424-4.75,3.772-7.718,3.772
		c-0.315,0-0.641-0.043-0.967-0.076c-4.348,9.49-10.447,17.425-17.708,23.143c5.381,21.524,25.274,20.697,25.491,20.708
		C222.138,290.938,239.325,308.548,239.325,330.104z M219.758,359.933v-29.829c0-11.207-9.12-20.328-20.328-20.328
		c-0.228,0-3.794-0.207-5.327-0.413c-6.957,19.002-25.252,32.318-46.232,32.318s-39.264-13.316-46.232-32.318
		c-1.533,0.207-5.098,0.413-5.327,0.413c-11.207,0-20.328,9.12-20.328,20.328v29.829H219.758z M195.169,207.942
		c0.272-2.446,0.37-4.957,0.294-7.49c-0.707-22.154-15.545-40.275-33.079-40.395c-0.141,0-3.076,0.152-3.283,0.152
		c-1.587,0.043-3.272-0.196-4.653-1.011c-6.577-3.892-14.393-3.272-14.719-3.261c-9.968,0.315-19.295,5.5-26.263,14.577
		c-7.425,9.664-11.273,22.448-10.838,35.992c0.076,2.305,0.25,4.413,0.544,6.424c0.043,0.304,0.087,0.598,0.13,0.902
		c4.457-3.631,9.414-6.49,14.74-8.501c5.327-1.989,10.925-3.076,16.654-3.261c1.163-0.043,2.348-0.033,3.522,0
		c5.892,0.185,11.142-2.522,13.719-7.12c1.054-1.881,1.968-3.87,2.728-5.914c0.924-2.5,2.826-4.522,5.283-5.577
		c2.446-1.065,5.218-1.076,7.675-0.043C179.07,188.223,188.69,196.832,195.169,207.942z M180.037,221.193
		c-2.87-6.098-6.99-11.251-11.99-15.077c-6.392,10.044-17.904,15.947-30.503,15.512c-0.739-0.022-7.577-0.141-12.632,2.022
		c-2.772,1.196-5.5,2.544-7.968,4.381c4.653,18.741,17.067,31.829,30.894,31.829C163.351,259.859,177.015,243.151,180.037,221.193z
		 M147.871,322.114c12.675,0,23.709-8.055,27.894-19.545c-8.686-5.631-15.306-14.175-18.458-24.241
		c-3.076,0.717-6.24,1.098-9.468,1.098c-3.196,0-6.338-0.38-9.403-1.098c-3.152,10.066-9.773,18.61-18.447,24.241
		C124.163,314.059,135.196,322.114,147.871,322.114z"/>
</g>
<path style="fill:#94E7EF;" d="M219.758,330.104v29.829H75.985v-29.829c0-11.207,9.12-20.328,20.328-20.328
	c0.228,0,3.794-0.207,5.327-0.413c6.968,19.002,25.252,32.318,46.232,32.318s39.275-13.316,46.232-32.318
	c1.533,0.207,5.098,0.413,5.327,0.413C210.637,309.776,219.758,318.897,219.758,330.104z"/>
<path style="fill:#9B8CCC;" d="M195.462,200.452c0.076,2.533-0.022,5.044-0.294,7.49c-6.479-11.11-16.099-19.719-27.546-24.524
	c-2.457-1.033-5.229-1.022-7.675,0.043c-2.457,1.054-4.359,3.076-5.283,5.577c-0.761,2.044-1.674,4.033-2.728,5.914
	c-2.576,4.598-7.827,7.305-13.719,7.12c-1.174-0.033-2.359-0.043-3.522,0c-5.729,0.185-11.327,1.272-16.654,3.261
	c-5.327,2.011-10.283,4.87-14.74,8.501c-0.043-0.304-0.087-0.598-0.13-0.902c-0.294-2.011-0.467-4.12-0.544-6.424
	c-0.435-13.545,3.413-26.328,10.838-35.992c6.968-9.077,16.295-14.262,26.263-14.577c0.326-0.011,8.142-0.63,14.719,3.261
	c1.381,0.815,3.065,1.054,4.653,1.011c0.207,0,3.142-0.152,3.283-0.152C179.917,160.177,194.756,178.298,195.462,200.452z"/>
<g>
	<path style="fill:#FFFFFF;" d="M168.047,206.115c5,3.826,9.12,8.979,11.99,15.077c-3.022,21.958-16.686,38.666-32.198,38.666
		c-13.827,0-26.241-13.088-30.894-31.829c2.468-1.837,5.196-3.185,7.968-4.381c5.055-2.163,11.892-2.044,12.632-2.022
		C150.143,222.062,161.655,216.16,168.047,206.115z"/>
	<path style="fill:#FFFFFF;" d="M175.765,302.569c-4.185,11.49-15.219,19.545-27.894,19.545c-12.675,0-23.709-8.055-27.883-19.545
		c8.675-5.631,15.295-14.175,18.447-24.241c3.065,0.717,6.207,1.098,9.403,1.098c3.229,0,6.392-0.38,9.468-1.098
		C160.459,288.394,167.079,296.938,175.765,302.569z"/>
</g>
</svg>