<svg xmlns="http://www.w3.org/2000/svg" width="32" height="32" id="payment">
  <path fill="#e9eded" d="M9.071 7H30.93A1.07 1.07 0 0 1 32 8.072v12.857A1.07 1.07 0 0 1 30.929 22H9.07A1.07 1.07 0 0 1 8 20.93V8.072A1.07 1.07 0 0 1 9.071 7z"></path>
  <path fill="#34485c" d="M8 9v3h24V9H8z"></path>
  <path fill="#cad1d8" d="M13 19h-3v1h3v-1z"></path>
  <path fill="#f8b84e" d="M27.6 16a2 2 0 0 1-2 2 2 2 0 0 1-2-2 2 2 0 0 1 2-2 2 2 0 0 1 2 2z"></path>
  <path fill="#cad1d8" d="M17 19h-3v1h3v-1zm4 0h-3v1h3v-1zm4 0h-3v1h3v-1zm-4-4H10v2h11v-2z"></path>
  <path fill="#f05542" d="M30 16a2 2 0 0 1-2 2 2 2 0 0 1-2-2 2 2 0 0 1 2-2 2 2 0 0 1 2 2z"></path>
  <path fill="#4bbfeb" d="M1.071 10H22.93A1.07 1.07 0 0 1 24 11.072v12.857A1.07 1.07 0 0 1 22.929 25H1.07A1.07 1.07 0 0 1 0 23.93V11.072A1.07 1.07 0 0 1 1.071 10z"></path>
  <g fill="none" stroke="#78c8f0" transform="translate(-379 -2218.862)">
    <circle cx="391" cy="2236.362" r="3.5" stroke-linecap="square" stroke-miterlimit="8.78" color="#000" overflow="visible" style="isolation:auto;mix-blend-mode:normal"></circle>
    <path d="M396 2233.862h2m-1 2.5h3m-4 2.5h2m-12-5h-2m1 2.5h-3m4 2.5h-2"></path>
  </g>
</svg>
